<?xml version="1.0" encoding="UTF-8"?>
<svg width="18px" height="18px" viewBox="0 0 18 18" version="1.1" xmlns="http://www.w3.org/2000/svg" xmlns:xlink="http://www.w3.org/1999/xlink">
    <!-- Generator: Sketch 56 (81588) - https://sketch.com -->
    <title>翻译1</title>
    <desc>Created with Sketch.</desc>
    <g id="Page-1" stroke="none" stroke-width="1" fill="none" fill-rule="evenodd">
        <g id="icon" transform="translate(-1040.000000, -317.000000)" fill="#FFFFFF" fill-rule="nonzero">
            <path d="M1048.5,335 C1043.80558,335 1040,331.19442 1040,326.5 C1040,321.80558 1043.80558,318 1048.5,318 C1053.19442,318 1057,321.80558 1057,326.5 C1057,331.19442 1053.19442,335 1048.5,335 Z M1048.5,333 C1052.08985,333 1055,330.089851 1055,326.5 C1055,322.910149 1052.08985,320 1048.5,320 C1044.91015,320 1042,322.910149 1042,326.5 C1042,330.089851 1044.91015,333 1048.5,333 Z M1046.8125,327.960938 C1046.88281,328.242189 1046.95312,328.499999 1047.02344,328.734375 L1048.95703,328.734375 L1048.95703,328.207031 L1047.05859,328.207031 L1047.05859,327.011719 L1048.95703,327.011719 L1048.95703,326.519531 L1050.39844,326.519531 L1050.39844,327.011719 L1052.4375,327.011719 L1052.4375,328.207031 L1050.39844,328.207031 L1050.39844,328.734375 L1052.68359,328.734375 L1052.68359,329.964844 L1050.39844,329.964844 L1050.39844,330.984375 L1048.95703,330.984375 L1048.95703,329.964844 L1046.84766,329.964844 L1046.84766,329.648438 C1046.75391,329.71875 1046.63672,329.812499 1046.49609,329.929688 C1046.26172,330.070313 1046.08594,330.199218 1045.96875,330.316406 L1045.6875,330.597656 C1045.57031,330.714844 1045.47656,330.796875 1045.40625,330.84375 L1044.5625,329.789062 C1044.79688,329.554686 1044.91406,329.238283 1044.91406,328.839844 L1044.91406,326.695312 L1044.21094,326.695312 L1044.21094,325.359375 L1046.25,325.359375 L1046.25,328.488281 C1046.29688,328.441406 1046.37891,328.359375 1046.49609,328.242188 C1046.63672,328.124999 1046.74219,328.03125 1046.8125,327.960938 Z M1052.36719,322.898438 L1052.36719,324.09375 C1051.92187,324.632815 1051.53516,325.01953 1051.20703,325.253906 C1051.65235,325.347657 1052.16797,325.429687 1052.75391,325.5 C1052.56641,325.968752 1052.41406,326.390623 1052.29688,326.765625 C1051.28906,326.554686 1050.4336,326.320314 1049.73047,326.0625 C1049.09765,326.343751 1048.19532,326.589843 1047.02344,326.800781 C1046.85937,326.425779 1046.66016,326.015627 1046.42578,325.570312 C1047.22266,325.5 1047.82031,325.406251 1048.21875,325.289062 C1047.82031,325.031249 1047.48047,324.738283 1047.19922,324.410156 L1047.62109,324.09375 L1046.84766,324.09375 L1046.84766,322.898438 L1052.36719,322.898438 Z M1045.58203,322.617188 C1045.98047,323.17969 1046.35547,323.742185 1046.70703,324.304688 L1045.40625,325.042969 C1045.19531,324.574216 1044.84375,323.976566 1044.35156,323.25 L1045.58203,322.617188 Z M1048.67578,324.09375 C1048.95703,324.351564 1049.29687,324.585936 1049.69531,324.796875 C1050.07031,324.585936 1050.39844,324.351564 1050.67969,324.09375 L1048.67578,324.09375 Z" id="翻译1"></path>
        </g>
    </g>
</svg>